# xmcd
#
# Track frame offsets:
# 150
# 14820
# 28840
# 44935
# 60865
# 77835
# 90390
# 106355
# 120320
# 137295
# 164970
# 180945
# 198240
# 215140
#
# Disc length: 3078 seconds
#
#
# Revision: 0
# Processed by: cddbd v1.5.2PL0 Copyright (c) Steve Scherf et al.
# Submitted via: FreeRIP 2.90 
#
DISCID=c00c040e
DTITLE=Mastruz com Leite - Sao Joao da Roca
DYEAR=1900
DGENRE=Country
TTITLE0=Marcando a Quadilha
TTITLE1=Festa na Roca
TTITLE2=Quadrilha Brasileira
TTITLE3=Pula Fogueira
TTITLE4=Sonho de Papel
TTITLE5=O Sanfoneiro So Tocava Isto
TTITLE6=Sao Joao na Terra
TTITLE7=Chegou a Hora da Fogueira
TTITLE8=Joao Pedro e Antonio
TTITLE9=Isto eh La com Santo Antonio
TTITLE10=Fim de Festa
TTITLE11=Olhinhos de Fogueira
TTITLE12=Passeando pelo Sertao
TTITLE13=Leito de Saudade
EXTD=
EXTT0=
EXTT1=
EXTT2=
EXTT3=
EXTT4=
EXTT5=
EXTT6=
EXTT7=
EXTT8=
EXTT9=
EXTT10=
EXTT11=
EXTT12=
EXTT13=
PLAYORDER=
